<svg width="116" height="117" viewBox="0 0 116 117" fill="none" xmlns="http://www.w3.org/2000/svg">
<rect y="0.0253906" width="116" height="116" rx="30" fill="#CAC2FF"/>
<path d="M59.4004 74.2617L71.4775 80.5256C72.0084 80.8012 72.3409 81.3487 72.3409 81.9473V85.1826C72.3409 86.2884 71.2469 87.0615 70.2057 86.6919L59.4844 82.8787C58.8462 82.6514 58.4199 82.0475 58.4199 81.3693V74.8585C58.4208 74.3548 58.9535 74.03 59.4004 74.2617Z" fill="#7B65FF"/>
<path d="M57.4991 74.2617L45.4219 80.5256C44.8911 80.8012 44.5586 81.3487 44.5586 81.9473V85.1826C44.5586 86.2884 45.6525 87.0615 46.6937 86.6919L57.4151 82.8787C58.0532 82.6514 58.4795 82.0475 58.4795 81.3693V74.8585C58.4795 74.3548 57.946 74.03 57.4991 74.2617Z" fill="#7B65FF"/>
<path d="M76.4521 56.8912H74.1722C73.1614 56.8912 72.3418 56.0708 72.3418 55.0589V49.2191C72.3418 48.2072 73.1614 47.3867 74.1722 47.3867H76.4521C77.4629 47.3867 78.2825 48.2072 78.2825 49.2191V55.0589C78.2825 56.0708 77.4629 56.8912 76.4521 56.8912Z" fill="#A899FF"/>
<path d="M64.623 47.3867L84.6027 57.0066C87.0936 58.2064 86.0416 61.2968 83.1423 61.2968H64.623V47.3867Z" fill="#7B65FF"/>
<path d="M43.0146 56.8902H40.7347C39.7239 56.8902 38.9043 56.0698 38.9043 55.0579V49.2181C38.9043 48.2062 39.7239 47.3857 40.7347 47.3857H43.0146C44.0254 47.3857 44.845 48.2062 44.845 49.2181V55.0579C44.8441 56.0698 44.0254 56.8902 43.0146 56.8902Z" fill="#A899FF"/>
<path d="M52.2198 47.3857L32.2402 57.0057C29.7493 58.2055 30.8012 61.2958 33.7005 61.2958H52.2198V47.3857Z" fill="#7B65FF"/>
<path d="M58.4224 27.6903C58.4224 27.6903 51.1035 27.2653 51.1035 45.8484C51.1035 62.6466 54.657 81.1805 57.534 86.8592C57.904 87.5893 58.9416 87.5893 59.3108 86.8592C62.1868 81.1805 65.7413 62.6466 65.7413 45.8484C65.7413 27.2653 58.4224 27.6903 58.4224 27.6903Z" fill="#5236FF"/>
<path d="M62.3033 35.8265C62.3033 34.8194 61.9032 33.8536 61.1911 33.1415C60.479 32.4294 59.5132 32.0293 58.5061 32.0293C57.4991 32.0293 56.5333 32.4294 55.8211 33.1415C55.109 33.8536 54.709 34.8194 54.709 35.8265L58.5061 35.8265H62.3033Z" fill="white"/>
</svg>
